<svg xmlns="http://www.w3.org/2000/svg" width="100%" height="100%" viewBox="1400 650 2000 2000">
  <defs>
    <!-- Smooth cyan/blue/pink gradient matching the reference -->
    <linearGradient id="bgGrad" x1="0%" y1="0%" x2="100%" y2="0%">
      <stop offset="0%" stop-color="#39d0d8" />
      <stop offset="50%" stop-color="#2b6cb0" />
      <stop offset="100%" stop-color="#f700ff" />
    </linearGradient>

    <!-- Mask to extract the 'H' shape from the negative space -->
    <mask id="hMask">
      <circle cx="2400" cy="1650" r="850" fill="white" />
      <g fill="black">
        <path    stroke="black" stroke-width="4" stroke-linejoin="round" d="M 1927.789062 1256.628906 L 1927.789062 1224.371094 L 1904.449219 1240.628906 Z M 1927.789062 1256.628906 "/>
        <path    stroke="black" stroke-width="4" stroke-linejoin="round" d="M 2195.261719 1037.949219 L 2105.929688 1100.210938 L 2133.160156 1100.210938 L 2133.160156 1397.460938 L 2212.890625 1452.128906 L 2195.261719 1037.949219 "/>
        <path    stroke="black" stroke-width="4" stroke-linejoin="round" d="M 1910.511719 943.03125 C 1902.371094 948.679688 1894.230469 954.328125 1886.300781 960.25 L 1904.449219 1240.628906 L 1927.789062 1224.371094 L 1927.789062 1100.210938 L 2105.929688 1100.210938 L 2195.261719 1037.949219 L 1910.511719 943.03125 "/>
        <path    stroke="black" stroke-width="4" stroke-linejoin="round" d="M 1886.300781 960.25 C 1798.480469 1025.761719 1723.640625 1107.671875 1666.199219 1201.410156 L 1904.449219 1240.628906 L 1886.300781 960.25 "/>
        <path    stroke="black" stroke-width="4" stroke-linejoin="round" d="M 2212.210938 810.808594 C 2102.210938 835.320312 2000.171875 880.828125 1910.511719 943.03125 L 2195.261719 1037.949219 L 2212.210938 810.808594 "/>
        <path    stroke="black" stroke-width="4" stroke-linejoin="round" d="M 2530.808594 800.019531 C 2488.148438 793.5 2444.488281 790 2400 790 C 2354.128906 790 2309.140625 793.671875 2265.210938 800.589844 L 2450.828125 1024.730469 L 2530.808594 800.019531 "/>
        <path    stroke="black" stroke-width="4" stroke-linejoin="round" d="M 2450.828125 1024.730469 L 2265.210938 800.589844 C 2247.339844 803.398438 2229.710938 806.910156 2212.210938 810.808594 L 2195.261719 1037.949219 L 2450.828125 1024.730469 "/>
        <path    stroke="black" stroke-width="4" stroke-linejoin="round" d="M 2195.261719 1037.949219 L 2212.890625 1452.128906 L 2450.828125 1024.730469 Z M 2195.261719 1037.949219 "/>
        <path    stroke="black" stroke-width="4" stroke-linejoin="round" d="M 2872.210938 931.199219 L 2872.210938 982.300781 L 2881.230469 937.539062 C 2878.191406 935.480469 2875.289062 933.21875 2872.210938 931.199219 "/>
        <path    stroke="black" stroke-width="4" stroke-linejoin="round" d="M 2668.390625 1080.328125 L 2668.390625 832.769531 C 2624.019531 818.210938 2578.03125 807.25 2530.808594 800.019531 L 2450.828125 1024.730469 L 2668.390625 1080.328125 "/>
        <path    stroke="black" stroke-width="4" stroke-linejoin="round" d="M 1904.449219 1240.628906 L 1666.199219 1201.410156 C 1618.070312 1279.980469 1582.378906 1366.929688 1561.441406 1459.488281 L 1574.21875 1653.921875 L 1904.449219 1240.628906 "/>
        <path    stroke="black" stroke-width="4" stroke-linejoin="round" d="M 2133.160156 1397.460938 L 2133.160156 1477.320312 L 2212.890625 1452.128906 Z M 2133.160156 1397.460938 "/>
        <path    stroke="black" stroke-width="4" stroke-linejoin="round" d="M 1574.21875 1653.921875 L 1927.789062 1542.210938 L 1927.789062 1256.628906 L 1904.449219 1240.628906 L 1574.21875 1653.921875 "/>
        <path    stroke="black" stroke-width="4" stroke-linejoin="round" d="M 2611.910156 1559.199219 L 2668.390625 1559.199219 L 2668.390625 1080.328125 L 2450.828125 1024.730469 L 2611.910156 1559.199219 "/>
        <path    stroke="black" stroke-width="4" stroke-linejoin="round" d="M 2212.890625 1452.128906 L 2379.289062 1559.199219 L 2611.910156 1559.199219 L 2450.828125 1024.730469 L 2212.890625 1452.128906 "/>
        <path    stroke="black" stroke-width="4" stroke-linejoin="round" d="M 1927.789062 2000.070312 L 1927.789062 1542.210938 L 1574.21875 1653.921875 Z M 1927.789062 2000.070312 "/>
        <path    stroke="black" stroke-width="4" stroke-linejoin="round" d="M 2133.160156 1477.320312 L 2133.160156 1559.199219 L 2170.828125 1559.199219 L 2212.890625 1452.128906 L 2133.160156 1477.320312 "/>
        <path    stroke="black" stroke-width="4" stroke-linejoin="round" d="M 2212.890625 1452.128906 L 2170.828125 1559.199219 L 2379.289062 1559.199219 Z M 2212.890625 1452.128906 "/>
        <path    stroke="black" stroke-width="4" stroke-linejoin="round" d="M 2133.160156 1749.019531 L 2133.160156 1981.058594 L 2658.488281 1749.019531 Z M 2133.160156 1749.019531 "/>
        <path    stroke="black" stroke-width="4" stroke-linejoin="round" d="M 1577.640625 1901.089844 C 1616.769531 2029.351562 1684.890625 2144.890625 1774.640625 2239.96875 L 1927.789062 2096.699219 L 1927.789062 2000.070312 L 1574.21875 1653.921875 L 1577.640625 1901.089844 "/>
        <path    stroke="black" stroke-width="4" stroke-linejoin="round" d="M 1540.601562 1668.671875 C 1542.328125 1749.390625 1555.140625 1827.320312 1577.640625 1901.089844 L 1574.21875 1653.921875 L 1540.601562 1668.671875 "/>
        <path    stroke="black" stroke-width="4" stroke-linejoin="round" d="M 1540.390625 1634.710938 C 1540.300781 1639.820312 1540 1644.871094 1540 1650 C 1540 1656.261719 1540.460938 1662.398438 1540.601562 1668.621094 L 1574.21875 1653.921875 L 1540.390625 1634.710938 "/>
        <path    stroke="black" stroke-width="4" stroke-linejoin="round" d="M 1540.601562 1668.621094 C 1540.601562 1668.640625 1540.601562 1668.660156 1540.601562 1668.671875 L 1574.21875 1653.921875 L 1540.601562 1668.621094 "/>
        <path    stroke="black" stroke-width="4" stroke-linejoin="round" d="M 1561.441406 1459.488281 C 1548.648438 1516 1541.441406 1574.589844 1540.390625 1634.710938 L 1574.21875 1653.921875 L 1561.441406 1459.488281 "/>
        <path    stroke="black" stroke-width="4" stroke-linejoin="round" d="M 2133.160156 2191.941406 L 2133.160156 2467.011719 L 2464.789062 2496.921875 Z M 2133.160156 2191.941406 "/>
        <path    stroke="black" stroke-width="4" stroke-linejoin="round" d="M 1927.789062 2368.800781 L 1927.789062 2096.699219 L 1774.640625 2239.96875 C 1820.488281 2288.539062 1871.78125 2331.929688 1927.789062 2368.800781 "/>
        <path    stroke="black" stroke-width="4" stroke-linejoin="round" d="M 2133.160156 2467.011719 L 2133.160156 2467.730469 C 2217.171875 2495.128906 2306.839844 2510 2400 2510 C 2419.449219 2510 2438.691406 2509.121094 2457.820312 2507.851562 L 2464.789062 2496.921875 L 2133.160156 2467.011719 "/>
        <path    stroke="black" stroke-width="4" stroke-linejoin="round" d="M 2457.820312 2507.851562 C 2463.398438 2507.480469 2468.96875 2507.058594 2474.519531 2506.578125 L 2464.789062 2496.921875 L 2457.820312 2507.851562 "/>
        <path    stroke="black" stroke-width="4" stroke-linejoin="round" d="M 2464.789062 2496.921875 L 2474.519531 2506.578125 C 2651.929688 2491.339844 2813.960938 2422.410156 2944.160156 2315.878906 L 2951.328125 2159.480469 L 2464.789062 2496.921875 "/>
        <path    stroke="black" stroke-width="4" stroke-linejoin="round" d="M 2666.75 1749.019531 L 2658.488281 1749.019531 L 2133.160156 1981.058594 L 2133.160156 2191.941406 L 2464.789062 2496.921875 L 2666.75 1749.019531 "/>
        <path    stroke="black" stroke-width="4" stroke-linejoin="round" d="M 2951.328125 2159.480469 L 2872.210938 2043.769531 L 2872.210938 2189.328125 L 2668.390625 2189.328125 L 2668.390625 1749.019531 L 2666.75 1749.019531 L 2464.789062 2496.921875 L 2951.328125 2159.480469 "/>
        <path    stroke="black" stroke-width="4" stroke-linejoin="round" d="M 2944.160156 2315.878906 C 2982.449219 2284.550781 3017.859375 2249.878906 3050.230469 2212.5 L 2951.328125 2159.480469 L 2944.160156 2315.878906 "/>
        <path    stroke="black" stroke-width="4" stroke-linejoin="round" d="M 2881.230469 937.539062 L 2872.210938 982.300781 L 2872.210938 1125.871094 L 3085.929688 1131.859375 C 3028.839844 1056.410156 2959.71875 990.660156 2881.230469 937.539062 "/>
        <path    stroke="black" stroke-width="4" stroke-linejoin="round" d="M 3234.628906 1442.949219 C 3206.300781 1328.441406 3155 1223.109375 3085.929688 1131.859375 L 2872.210938 1125.871094 L 2872.210938 1171.570312 L 3152.269531 1624.289062 L 3234.628906 1442.949219 "/>
        <path    stroke="black" stroke-width="4" stroke-linejoin="round" d="M 2872.210938 1171.570312 L 2872.210938 1694.011719 L 3152.269531 1624.289062 Z M 2872.210938 1171.570312 "/>
        <path    stroke="black" stroke-width="4" stroke-linejoin="round" d="M 3152.269531 1624.289062 L 2872.210938 1694.011719 L 2872.210938 2043.769531 L 2951.328125 2159.480469 L 3152.269531 1624.289062 "/>
        <path    stroke="black" stroke-width="4" stroke-linejoin="round" d="M 3050.230469 2212.5 C 3078.011719 2180.410156 3103.449219 2146.269531 3126.300781 2110.289062 L 2951.328125 2159.480469 L 3050.230469 2212.5 "/>
        <path    stroke="black" stroke-width="4" stroke-linejoin="round" d="M 3152.269531 1624.289062 L 2951.328125 2159.480469 L 3126.300781 2110.289062 C 3209.820312 1978.78125 3258.679688 1823.148438 3259.839844 1656.109375 L 3152.269531 1624.289062 "/>
        <path    stroke="black" stroke-width="4" stroke-linejoin="round" d="M 3259.839844 1656.109375 C 3259.859375 1654.058594 3260 1652.050781 3260 1650 C 3260 1578.578125 3251.039062 1509.300781 3234.628906 1442.949219 L 3152.269531 1624.289062 L 3259.839844 1656.109375 "/>
      </g>
    </mask>

    <!-- Glow effect -->
    <filter id="neonGlow" x="-20%" y="-20%" width="140%" height="140%">
      <feGaussianBlur in="SourceGraphic" stdDeviation="5" result="blur1" />
      <feGaussianBlur in="SourceGraphic" stdDeviation="15" result="blur2" />
      <feMerge>
        <feMergeNode in="blur2" />
        <feMergeNode in="blur1" />
        <feMergeNode in="SourceGraphic" />
      </feMerge>
    </filter>
  </defs>

  <!-- Background Circle with smooth gradient, centered perfectly over the H paths -->
  <circle cx="2400" cy="1650" r="900" fill="url(#bgGrad)" />
  


  <!-- The solid white glowing H, drawn using the mask, centered perfectly -->
  <circle cx="2400" cy="1650" r="850" fill="white" mask="url(#hMask)" filter="url(#neonGlow)" />
</svg>